<svg width="700pt" height="700pt" version="1.1" viewBox="0 0 700 700">
 <path d="m327.82 64.09c-12.219 0-22.324 10.07-22.324 22.289v44.352c0 12.219 10.102 22.324 22.324 22.324h44.363c12.219 0 22.324-10.102 22.324-22.324l-0.003906-44.352c0-12.219-10.102-22.289-22.324-22.289zm0 16.789h44.363c3.2031 0 5.4922 2.2969 5.4922 5.5v44.352c0 3.2031-2.2852 5.5469-5.4922 5.5469h-44.363c-3.2031 0-5.4922-2.3398-5.4922-5.5469v-44.352c0-3.2031 2.2852-5.5 5.4922-5.5zm22.203 81.145c-0.74609-0.003907-1.4648 0.29297-1.9922 0.82031s-0.82422 1.2422-0.82031 1.9883v28.645l-145.88 0.003907h-0.097657c-0.74609-0.003907-1.4609 0.28906-1.9883 0.82031-0.53125 0.52734-0.82422 1.2422-0.82031 1.9883v28.777c-0.003907 0.74609 0.28906 1.4648 0.82031 1.9922 0.52734 0.52734 1.2422 0.82031 1.9883 0.82031 0.74609 0 1.4648-0.29297 1.9922-0.82031 0.52734-0.52734 0.82422-1.2461 0.82031-1.9922v-25.965h291.9v25.965c-0.003907 0.74609 0.29297 1.4648 0.82031 1.9922 0.52734 0.52734 1.2461 0.82031 1.9922 0.82031 0.74609 0 1.4609-0.29297 1.9883-0.82031 0.53125-0.52734 0.82422-1.2461 0.82031-1.9922v-28.68c0.003907-0.03125 0.003907-0.066407 0-0.097657 0.003907-0.74609-0.28906-1.4648-0.82031-1.9922-0.52734-0.52734-1.2422-0.82031-1.9883-0.82031h-145.97v-28.645c0.007813-1.5391-1.2305-2.793-2.7656-2.8086zm-170.93 73.828c-12.219 0-22.324 10.102-22.324 22.324v44.363c0 12.219 10.102 22.324 22.324 22.324l44.348-0.003906c12.219 0 22.281-10.102 22.281-22.324v-44.363c0-12.219-10.059-22.324-22.281-22.324zm297.47 0c-12.219 0-22.281 10.102-22.281 22.324v44.363c0 12.219 10.059 22.324 22.281 22.324h44.352c12.219 0 22.324-10.102 22.324-22.324v-44.363c0-12.219-10.102-22.324-22.324-22.324zm-297.47 16.789h44.352c3.2031 0 5.5 2.332 5.5 5.5352v44.363c0 3.2031-2.2969 5.4922-5.5 5.4922l-44.352-0.003906c-3.2031 0-5.5469-2.2852-5.5469-5.4922v-44.363c0-3.2031 2.3398-5.5352 5.5469-5.5352zm297.47 0h44.352c3.2031 0 5.5469 2.332 5.5469 5.5352v44.363c0 3.2031-2.3398 5.4922-5.5469 5.4922h-44.352c-3.2031 0-5.5-2.2852-5.5-5.4922v-44.363c0-3.2031 2.2969-5.5352 5.5-5.5352zm-275.32 80.191c-0.74609 0-1.4609 0.29297-1.9883 0.82031-0.53125 0.52734-0.82422 1.2461-0.82031 1.9922v25.965h-71.555c-0.74609-0.003906-1.4648 0.29297-1.9922 0.82031-0.52734 0.52734-0.82031 1.2461-0.82031 1.9922v28.766c0 0.74609 0.29297 1.4609 0.82031 1.9883 0.52734 0.53125 1.2461 0.82422 1.9922 0.82031 0.74609 0.003906 1.4648-0.28906 1.9922-0.82031 0.52734-0.52734 0.82031-1.2422 0.82031-1.9883v-26h143.16v26c-0.007812 1.5391 1.2305 2.793 2.7656 2.8086 0.74609 0.003906 1.4648-0.28906 1.9922-0.82031 0.52734-0.52734 0.82422-1.2422 0.82031-1.9883v-28.723-0.042969c0.003907-0.74609-0.29297-1.4648-0.82031-1.9922-0.52734-0.52734-1.2461-0.82422-1.9922-0.82031h-71.562v-25.965c0.003907-0.74609-0.29297-1.4648-0.82031-1.9922-0.52734-0.52734-1.2461-0.82031-1.9922-0.82031zm297.52 0c-0.74609 0-1.4648 0.29297-1.9922 0.82031-0.52734 0.52734-0.82422 1.2461-0.82031 1.9922v25.965h-71.562c-1.5195-0.007813-2.7656 1.1953-2.8125 2.7148v0.097656 28.766c-0.003907 0.74609 0.29297 1.4648 0.82031 1.9922 0.52734 0.52734 1.2461 0.82031 1.9922 0.82031 1.5352-0.019531 2.7734-1.2734 2.7656-2.8125v-26h143.16v26c0 0.74609 0.29297 1.4648 0.82031 1.9922 0.52734 0.52734 1.2461 0.82031 1.9922 0.82031s1.4648-0.29297 1.9922-0.82031c0.52734-0.52734 0.82031-1.2461 0.82031-1.9922v-28.723-0.042969c0-0.74609-0.29297-1.4648-0.82031-1.9922-0.52734-0.52734-1.2461-0.82031-1.9922-0.82031h-71.555v-25.965c0.003907-0.74609-0.28906-1.4648-0.82031-1.9922-0.52734-0.52734-1.2422-0.82031-1.9883-0.82031zm-394.05 74.082c-12.219 0-22.324 10.102-22.324 22.324v44.352c0 12.219 10.102 22.324 22.324 22.324h44.32c12.219 0 22.324-10.102 22.324-22.324v-44.352c0-12.219-10.102-22.324-22.324-22.324zm148.74 0c-12.219 0-22.324 10.102-22.324 22.324v44.352c0 12.219 10.102 22.324 22.324 22.324h44.352c12.219 0 22.324-10.102 22.324-22.324v-44.352c0-12.219-10.102-22.324-22.324-22.324zm148.74 0c-12.219 0-22.324 10.102-22.324 22.324v44.352c0 12.219 10.102 22.324 22.324 22.324h44.352c12.219 0 22.324-10.102 22.324-22.324v-44.352c0-12.219-10.102-22.324-22.324-22.324zm148.77 0c-12.219 0-22.324 10.102-22.324 22.324v44.352c0 12.219 10.102 22.324 22.324 22.324h44.32c12.219 0 22.324-10.102 22.324-22.324v-44.352c0-12.219-10.102-22.324-22.324-22.324zm-446.25 16.789h44.32c3.2031 0 5.5352 2.332 5.5352 5.5352v44.352c0 3.2031-2.332 5.5-5.5352 5.5h-44.32c-3.2031 0-5.5352-2.2969-5.5352-5.5v-44.352c0-3.2031 2.332-5.5352 5.5352-5.5352zm148.74 0h44.352c3.2031 0 5.5 2.332 5.5 5.5352v44.352c0 3.2031-2.2969 5.5-5.5 5.5h-44.352c-3.2031 0-5.5469-2.2969-5.5469-5.5v-44.352c0-3.2031 2.3398-5.5352 5.5469-5.5352zm148.74 0h44.352c3.2031 0 5.5469 2.332 5.5469 5.5352v44.352c0 3.2031-2.3398 5.5-5.5469 5.5h-44.352c-3.2031 0-5.5-2.2969-5.5-5.5v-44.352c0-3.2031 2.2969-5.5352 5.5-5.5352zm148.77 0h44.32c3.2031 0 5.5352 2.332 5.5352 5.5352v44.352c0 3.2031-2.332 5.5-5.5352 5.5h-44.32c-3.2031 0-5.5352-2.2969-5.5352-5.5v-44.352c0-3.2031 2.332-5.5352 5.5352-5.5352z" fill-rule="evenodd"/>
</svg>
